<?xml version="1.0" encoding="utf-8"?>
<!-- Generator: Adobe Illustrator 25.0.0, SVG Export Plug-In . SVG Version: 6.00 Build 0)  -->
<svg version="1.1" id="afdfd1e9-9b52-4ce3-aad9-0a68bb11f588"
	 xmlns="http://www.w3.org/2000/svg" xmlns:xlink="http://www.w3.org/1999/xlink" x="0px" y="0px" viewBox="0 0 1137 693.1"
	 style="enable-background:new 0 0 1137 693.1;" xml:space="preserve">
<style type="text/css">
	.st0{fill:#3F3D56;}
	.st1{fill:#CCCCCC;}
	.st2{fill:#F2F2F2;}
</style>
<polygon class="st0" points="337.7,182 317.3,165.6 431.7,63.5 721.7,63.5 721.7,153.4 533.8,280 "/>
<polygon class="st1" points="774.6,120.8 774.6,65.6 736,65.6 736,79.1 721.7,63.5 627.7,165.6 591,190.2 534,606.6 619.9,692.6 
	819.7,692.6 819.7,169.7 "/>
<rect x="317.3" y="165.6" class="st2" width="310.4" height="526.9"/>
<rect x="437.8" y="563.9" class="st1" width="57.2" height="128.7"/>
<polygon class="st0" points="376.5,600.7 376.5,580.3 352,580.3 352,600.7 374.5,600.7 "/>
<polygon class="st0" points="374.5,617 352,617 352,637.4 376.5,637.4 376.5,617 "/>
<rect x="392.9" y="580.3" class="st0" width="24.5" height="20.4"/>
<rect x="392.9" y="617" class="st0" width="24.5" height="20.4"/>
<polygon class="st0" points="544,600.7 544,580.3 519.5,580.3 519.5,600.7 541.9,600.7 "/>
<polygon class="st0" points="541.9,617 519.5,617 519.5,637.4 544,637.4 544,617 "/>
<rect x="560.3" y="580.3" class="st0" width="24.5" height="20.4"/>
<rect x="560.3" y="617" class="st0" width="24.5" height="20.4"/>
<polygon class="st0" points="715.6,192.2 715.6,171.8 691,171.8 691,192.2 713.5,192.2 "/>
<polygon class="st0" points="713.5,208.5 691,208.5 691,229 715.6,229 715.6,208.5 "/>
<rect x="731.9" y="171.8" class="st0" width="24.5" height="20.4"/>
<rect x="731.9" y="208.5" class="st0" width="24.5" height="20.4"/>
<polygon class="st0" points="715.6,306.6 715.6,286.1 691,286.1 691,306.6 713.5,306.6 "/>
<polygon class="st0" points="713.5,322.9 691,322.9 691,343.3 715.6,343.3 715.6,322.9 "/>
<rect x="731.9" y="286.1" class="st0" width="24.5" height="20.4"/>
<rect x="731.9" y="322.9" class="st0" width="24.5" height="20.4"/>
<polygon class="st0" points="715.6,420.9 715.6,400.5 691,400.5 691,420.9 713.5,420.9 "/>
<polygon class="st0" points="713.5,437.3 691,437.3 691,457.7 715.6,457.7 715.6,437.3 "/>
<rect x="731.9" y="400.5" class="st0" width="24.5" height="20.4"/>
<rect x="731.9" y="437.3" class="st0" width="24.5" height="20.4"/>
<polygon class="st0" points="715.6,535.3 715.6,514.9 691,514.9 691,535.3 713.5,535.3 "/>
<polygon class="st0" points="713.5,551.7 691,551.7 691,572.1 715.6,572.1 715.6,551.7 "/>
<rect x="731.9" y="514.9" class="st0" width="24.5" height="20.4"/>
<rect x="731.9" y="551.7" class="st0" width="24.5" height="20.4"/>
<rect x="352" y="192.2" class="st0" width="236.9" height="49"/>
<rect x="352" y="290.2" class="st0" width="236.9" height="49"/>
<rect x="352" y="388.3" class="st0" width="236.9" height="49"/>
<rect x="352" y="486.3" class="st0" width="236.9" height="49"/>
</svg>
