<svg id="Calque_1" data-name="Calque 1" xmlns="http://www.w3.org/2000/svg" viewBox="0 0 84 84"><path d="M89,90H49.57a11.94,11.94,0,0,0-23.14,0H11a3,3,0,0,0,0,6H26.43a11.94,11.94,0,0,0,23.14,0H89a3,3,0,0,0,0-6ZM38,99a6,6,0,1,1,6-6A6,6,0,0,1,38,99ZM89,60H73.57a11.94,11.94,0,0,0-23.14,0H11a3,3,0,0,0,0,6H50.43a11.94,11.94,0,0,0,23.14,0H89a3,3,0,0,0,0-6ZM62,69a6,6,0,1,1,6-6A6,6,0,0,1,62,69ZM11,36H26.43a11.94,11.94,0,0,0,23.14,0H89a3,3,0,0,0,0-6H49.57a11.94,11.94,0,0,0-23.14,0H11a3,3,0,0,0,0,6Zm27-9a6,6,0,1,1-6,6A6,6,0,0,1,38,27Z" transform="translate(-8 -21)" style="fill:#3f3d56"/></svg>