<svg id="Calque_1" data-name="Calque 1" xmlns="http://www.w3.org/2000/svg" viewBox="0 0 17 17"><path d="M13.6,12.74H5.1a.8.8,0,0,0-.85.85v8.5a.8.8,0,0,0,.85.85h8.5a.8.8,0,0,0,.85-.85v-8.5A.8.8,0,0,0,13.6,12.74Z" transform="translate(-4.25 -5.94)" style="fill:#3f3d56"/><path d="M19.8,19.79l-.25.26V15.63l.25.25a.94.94,0,0,0,.6.26.91.91,0,0,0,.59-.26.82.82,0,0,0,0-1.19L19.29,13a.82.82,0,0,0-1.19,0l-1.7,1.7a.84.84,0,1,0,1.19,1.19l.26-.25v4.42l-.26-.26A.84.84,0,1,0,16.4,21l1.7,1.7a.94.94,0,0,0,.6.26.77.77,0,0,0,.59-.26L21,21a.84.84,0,1,0-1.19-1.19Z" transform="translate(-4.25 -5.94)" style="fill:#3f3d56"/><path d="M4.51,9.08l1.7,1.7a.81.81,0,0,0,1.19,0,.82.82,0,0,0,0-1.19l-.26-.25h4.42l-.25.25a.82.82,0,0,0,0,1.19.8.8,0,0,0,1.18,0l1.7-1.7a.82.82,0,0,0,0-1.19l-1.7-1.7a.84.84,0,0,0-1.18,1.19l.25.26H7.14l.26-.26a.82.82,0,0,0,0-1.19.84.84,0,0,0-1.19,0l-1.7,1.7A.82.82,0,0,0,4.51,9.08Z" transform="translate(-4.25 -5.94)" style="fill:#3f3d56"/></svg>