<svg id="Calque_1" data-name="Calque 1" xmlns="http://www.w3.org/2000/svg" viewBox="0 0 78.35 72.36"><path d="M84.9,23.06H53.82a1.43,1.43,0,0,0-1.44,1.44V39.05a1.45,1.45,0,0,0,2.89,0V26H83.45V92.43H72.2a1.45,1.45,0,1,0,0,2.89H84.9a1.43,1.43,0,0,0,1.44-1.44V24.5A1.43,1.43,0,0,0,84.9,23.06Z" transform="translate(-8 -23.06)" style="fill:#3f3d56"/><path d="M80.56,30.28a1.44,1.44,0,0,0-1.44-1.44H59.6a1.43,1.43,0,0,0-1.44,1.44v9A1.44,1.44,0,0,0,59.6,40.7H79.12a1.45,1.45,0,0,0,1.44-1.45ZM77.67,37.8H61.05V31.73H77.67Z" transform="translate(-8 -23.06)" style="fill:#3f3d56"/><path d="M80.56,46.59a1.45,1.45,0,0,0-1.44-1.45H71.58a1.45,1.45,0,0,0,0,2.89h6.09v6.08H72A1.45,1.45,0,0,0,72,57h7.13a1.45,1.45,0,0,0,1.44-1.44Z" transform="translate(-8 -23.06)" style="fill:#3f3d56"/><path d="M80.56,62.89a1.45,1.45,0,0,0-2.89,0v9a1.45,1.45,0,1,0,2.89,0Z" transform="translate(-8 -23.06)" style="fill:#3f3d56"/><path d="M74.45,86.72a1.45,1.45,0,1,0,0,2.89h4.67a1.45,1.45,0,0,0,1.44-1.45v-9a1.45,1.45,0,0,0-1.44-1.45H74.45a1.45,1.45,0,1,0,0,2.89h3.22v6.08Z" transform="translate(-8 -23.06)" style="fill:#3f3d56"/><path d="M30.06,51.14l.28,0a1.23,1.23,0,0,0,.27,0,1.47,1.47,0,0,0,.54-.1,1.44,1.44,0,0,0,.8-1.88L25.69,33.5a1.44,1.44,0,0,0-1.34-.91H15.7a1.44,1.44,0,0,0-1.34.91L8.1,49.16a1.44,1.44,0,0,0,.15,1.35,1.41,1.41,0,0,0,1.19.63h8.94V93.88a1.45,1.45,0,0,0,2.89,0V51.14ZM16.68,35.48h6.69l5.1,12.77H11.58Z" transform="translate(-8 -23.06)" style="fill:#3f3d56"/><path d="M75.57,69.51a5.9,5.9,0,0,0-2-5.57c-2-1.93-4.13-2.14-5.87-1.5.83-6.32.79-13.53-2.79-16.85C60,41,42.65,41,37.69,45.59,34.05,49,34.06,56.35,34.93,62.74c-1.85-1-4.22-1-6.56,1.2a5.91,5.91,0,0,0-2,5.58c.55,3,3.28,5.56,5,6.66l.3,10.63a1.45,1.45,0,0,0,1.45,1.41h.09L34,94.16a1.45,1.45,0,0,0,1.43,1.26h2.3a1.44,1.44,0,0,0,1.43-1.26l.76-6a1.44,1.44,0,0,0,1-.49H61a1.42,1.42,0,0,0,1,.49l.76,6a1.45,1.45,0,0,0,1.43,1.26h2.3A1.45,1.45,0,0,0,68,94.16l.76-5.94h.1a1.45,1.45,0,0,0,1.44-1.41l.3-10.63C72.29,75.08,75,72.54,75.57,69.51ZM39.65,47.71c3.92-3.63,19.38-3.63,23.29,0,3,2.82,2.58,10.66,1.44,17.21l-.67.67a10.5,10.5,0,0,0-3,6.31H41.22a10.46,10.46,0,0,0-2.85-6.16C37.13,59,36.48,50.65,39.65,47.71Zm21,27.08v2.68H41.28V74.79ZM41.28,80.36H60.66v4.47H41.28ZM29.21,69a3.08,3.08,0,0,1,1.14-3c.94-.88,2.4-1.85,4.21,0l.58.57c.32.32.68.66,1,1A7.62,7.62,0,0,1,38.39,73v12.3H34.53l-.29-10a1.44,1.44,0,0,0-.89-1.3C32.63,73.68,29.66,71.43,29.21,69Zm6.93,19.22H37l-.43,3.32Zm29.24,3.32L65,88.22h.85ZM68.59,74a1.44,1.44,0,0,0-.89,1.3l-.29,10H63.55V73a7.62,7.62,0,0,1,2.22-5.4c.34-.35.68-.68,1-1l.62-.61c1.82-1.82,3.27-.85,4.21,0a3.08,3.08,0,0,1,1.14,3C72.29,71.43,69.31,73.68,68.59,74Z" transform="translate(-8 -23.06)" style="fill:#3f3d56"/></svg>