<?xml version="1.0" encoding="utf-8"?>
<!-- Generator: Adobe Illustrator 25.0.0, SVG Export Plug-In . SVG Version: 6.00 Build 0)  -->
<svg version="1.1" id="Calque_1" xmlns="http://www.w3.org/2000/svg" xmlns:xlink="http://www.w3.org/1999/xlink" x="0px" y="0px"
	 viewBox="0 0 100 115.5" style="enable-background:new 0 0 100 115.5;" xml:space="preserve">
<g>
	<path d="M89.9,15H54.6c-0.9,0-1.6,0.7-1.6,1.6v16.5c0,0.9,0.7,1.6,1.6,1.6s1.6-0.7,1.6-1.6V18.3h32v75.5H75.5
		c-0.9,0-1.6,0.7-1.6,1.6c0,0.9,0.7,1.6,1.6,1.6h14.4c0.9,0,1.6-0.7,1.6-1.6V16.6C91.6,15.7,90.8,15,89.9,15z"/>
	<path d="M85,23.2c0-0.9-0.7-1.6-1.6-1.6H61.2c-0.9,0-1.6,0.7-1.6,1.6v10.2c0,0.9,0.7,1.6,1.6,1.6h22.2c0.9,0,1.6-0.7,1.6-1.6V23.2z
		 M81.7,31.7H62.8v-6.9h18.9V31.7z"/>
	<path d="M85,41.7c0-0.9-0.7-1.6-1.6-1.6h-8.6c-0.9,0-1.6,0.7-1.6,1.6s0.7,1.6,1.6,1.6h6.9v6.9h-6.5c-0.9,0-1.6,0.7-1.6,1.6
		s0.7,1.6,1.6,1.6h8.1c0.9,0,1.6-0.7,1.6-1.6C85,51.9,85,41.7,85,41.7z"/>
	<path d="M85,60.2c0-0.9-0.7-1.6-1.6-1.6s-1.6,0.7-1.6,1.6v10.2c0,0.9,0.7,1.6,1.6,1.6s1.6-0.7,1.6-1.6V60.2z"/>
	<path d="M78.1,87.3c-0.9,0-1.6,0.7-1.6,1.6c0,0.9,0.7,1.6,1.6,1.6h5.3c0.9,0,1.6-0.7,1.6-1.6V78.8c0-0.9-0.7-1.6-1.6-1.6h-5.3
		c-0.9,0-1.6,0.7-1.6,1.6c0,0.9,0.7,1.6,1.6,1.6h3.7v6.9C81.7,87.3,78.1,87.3,78.1,87.3z"/>
	<path d="M27.6,46.9c0.1,0,0.2,0,0.3,0c0.1,0,0.2,0,0.3,0c0.2,0,0.4,0,0.6-0.1c0.8-0.3,1.3-1.3,0.9-2.1l-7.1-17.8
		c-0.2-0.6-0.9-1-1.5-1h-9.8c-0.7,0-1.3,0.4-1.5,1L2.7,44.6c-0.2,0.5-0.1,1.1,0.2,1.5s0.8,0.7,1.4,0.7h10.1v48.5
		c0,0.9,0.7,1.6,1.6,1.6c0.9,0,1.6-0.7,1.6-1.6V46.9H27.6z M12.4,29.1H20l5.8,14.5H6.6L12.4,29.1z"/>
	<path d="M79.3,67.8c0.3-1.6,0.1-4-2.3-6.3c-2.3-2.2-4.7-2.4-6.7-1.7c0.9-7.2,0.9-15.4-3.2-19.1c-5.6-5.2-25.3-5.2-30.9,0
		c-4.1,3.8-4.1,12.2-3.1,19.5c-2.1-1.1-4.8-1.1-7.5,1.4c-2.4,2.3-2.6,4.7-2.3,6.3c0.6,3.4,3.7,6.3,5.7,7.6l0.3,12.1
		c0,0.9,0.8,1.6,1.6,1.6h0.1l0.9,6.7c0.1,0.8,0.8,1.4,1.6,1.4h2.6c0.8,0,1.5-0.6,1.6-1.4l0.9-6.8c0.5,0,0.9-0.2,1.2-0.6h22.8
		c0.3,0.3,0.7,0.5,1.2,0.6l0.9,6.8c0.1,0.8,0.8,1.4,1.6,1.4h2.6c0.8,0,1.5-0.6,1.6-1.4l0.9-6.7h0.1c0.9,0,1.6-0.7,1.6-1.6l0.3-12.1
		C75.6,74.1,78.7,71.2,79.3,67.8z M38.5,43c4.4-4.1,22-4.1,26.5,0c3.5,3.2,2.9,12.1,1.6,19.5c-0.2,0.2-0.5,0.5-0.8,0.8
		c-1.9,2-3.1,4.5-3.4,7.2H40.3c-0.3-2.6-1.4-5.1-3.2-7C35.7,55.9,34.9,46.3,38.5,43z M62.4,73.8v3h-22v-3H62.4z M40.4,80.1h22v5.1
		h-22V80.1z M26.7,67.2c-0.2-1.2,0.2-2.3,1.3-3.3c1.1-1,2.7-2.1,4.8,0l0.7,0.6c0.4,0.4,0.8,0.8,1.2,1.2c1.6,1.6,2.5,3.8,2.5,6.1v14
		h-4.4l-0.3-11.4c0-0.6-0.4-1.2-1-1.5C30.6,72.5,27.2,69.9,26.7,67.2z M34.5,89h1L35,92.8L34.5,89z M67.8,92.8L67.3,89h1L67.8,92.8z
		 M71.4,72.8c-0.6,0.2-1,0.8-1,1.5l-0.3,11.4h-4.4v-14c0-2.3,0.9-4.5,2.5-6.1c0.4-0.4,0.8-0.8,1.1-1.1l0.7-0.7c2.1-2.1,3.7-1,4.8,0
		c1.1,1,1.5,2.1,1.3,3.3C75.6,69.9,72.2,72.5,71.4,72.8z"/>
</g>
</svg>
