<svg id="Calque_1" data-name="Calque 1" xmlns="http://www.w3.org/2000/svg" viewBox="0 0 469.71 328.8"><path d="M256.86,120C127.13,120,22,284.4,22,284.4S127.13,448.8,256.86,448.8,491.71,284.4,491.71,284.4,386.58,120,256.86,120Zm0,281.83A117.43,117.43,0,1,1,374.29,284.4,117.47,117.47,0,0,1,256.86,401.83Z" transform="translate(-22 -120)" style="fill:#3f3d56"/><path d="M292.09,260.91a35.28,35.28,0,0,1-35.23-35.22A34.72,34.72,0,0,1,259,214.13c-.74,0-1.38-.19-2.12-.19a70.46,70.46,0,1,0,70.45,70.46,69.72,69.72,0,0,0-9.52-34.77A35,35,0,0,1,292.09,260.91Z" transform="translate(-22 -120)" style="fill:#3f3d56"/></svg>