<svg id="Calque_1" data-name="Calque 1" xmlns="http://www.w3.org/2000/svg" viewBox="0 0 75.62 60.1"><path d="M88,59.93c.83-1.63-.11-3.31-1.79-6.27L82,46.09a17.44,17.44,0,0,0-3.34-4.78,7.24,7.24,0,0,0,2.25-5.22V28.46A7.67,7.67,0,0,0,73,21H28.85A7.67,7.67,0,0,0,21,28.46v7.63a7.3,7.3,0,0,0,2.34,5.32,17.1,17.1,0,0,0-3.2,4.67l-4.24,7.5c-1.92,3.07-3,4.76-2,6.47a2.85,2.85,0,0,0,.34.49,4.62,4.62,0,0,0-.68,2.38v13.6a4.56,4.56,0,0,0,4.54,4.58H84.62a4.56,4.56,0,0,0,4.54-4.58V62.92A4.57,4.57,0,0,0,88,59.93Zm-9.22-12c-18.33,1.33-26-1.74-32-4.35H73a8.58,8.58,0,0,0,1.84-.21c1.54.36,2.23,1.5,3.91,4.52ZM46.74,36.35a5.26,5.26,0,0,1,.32,2.37,2.59,2.59,0,0,1-1.2.16c-.72,0-1.58-.08-2.59-.17l-.55-.05-6.6.31c-4.79,0-6.26-.38-6.7-.58,0-.16,0-.39.06-.57a11.3,11.3,0,0,0,.09-1.27l0-.68a9.86,9.86,0,0,0-.34-2.25A9.25,9.25,0,0,1,29,32.21a3.18,3.18,0,0,1,.82-.08,18.46,18.46,0,0,1,3.92.59l.21,0H41.2l.35,0a24.57,24.57,0,0,1,4.31-.55,4.23,4.23,0,0,1,1,.09c0,.25-.07.64-.11.92A7.32,7.32,0,0,0,46.74,36.35Zm27.21.4a5.05,5.05,0,0,1,.31,2.36,2.55,2.55,0,0,1-1.2.16c-.71,0-1.58-.08-2.58-.17l-.56-.05-6.61.31c-4.77,0-6.24-.38-6.68-.58,0-.16,0-.38,0-.56A11,11,0,0,0,56.77,37l0-.68A10,10,0,0,0,56.46,34a10.39,10.39,0,0,1-.25-1.42,4,4,0,0,1,.82-.07,18,18,0,0,1,3.93.59l.2,0h7.23l.35,0a24.75,24.75,0,0,1,4.33-.55,4.19,4.19,0,0,1,1,.09,7.51,7.51,0,0,1-.11.91A7.59,7.59,0,0,0,74,36.75ZM24.66,28.46a4,4,0,0,1,4.19-3.82H73a4,4,0,0,1,4.2,3.82v2.29a3.16,3.16,0,0,0-.35-.49,4.89,4.89,0,0,0-3.81-1.33,26.82,26.82,0,0,0-4.85.58H61.58A20.9,20.9,0,0,0,57,28.88,4.46,4.46,0,0,0,53.3,30.3c-1.11,1.4-.7,3.14-.38,4.53a8.26,8.26,0,0,1,.25,1.39l0,.67c0,.3,0,.6-.07.92a6.27,6.27,0,0,0,0,1.74H50.58a8.71,8.71,0,0,0-.33-4.18,4.76,4.76,0,0,1,.07-1.65,4.52,4.52,0,0,0-.65-3.85,4.86,4.86,0,0,0-3.81-1.33,26.54,26.54,0,0,0-4.83.58H34.37a21,21,0,0,0-4.54-.64,4.44,4.44,0,0,0-3.73,1.43c-1.12,1.4-.71,3.14-.39,4.53A7.36,7.36,0,0,1,26,35.83l0,.67a7.39,7.39,0,0,1-.07.91,7.43,7.43,0,0,0-.06,1.28,3.62,3.62,0,0,1-1.14-2.6V28.46Zm-5.61,27,4.29-7.61c1.59-2.94,2.34-4.08,3.78-4.47a8.26,8.26,0,0,0,1.73.19h8.28a37,37,0,0,1,7.76,3.12c5,2.62,11.89,5.18,25.75,5.18,3,0,6.39-.14,10.14-.46l2.29,4.05c.54,1,1.14,2,1.44,2.69a66.43,66.43,0,0,1-7.05.19H24.66a70.46,70.46,0,0,1-7.22-.19C17.79,57.46,18.43,56.43,19.05,55.45ZM85.52,76.52a.92.92,0,0,1-.9.94H18.09a.92.92,0,0,1-.9-.94V62.92a.93.93,0,0,1,.9-1H84.62a.93.93,0,0,1,.9,1Z" transform="translate(-13.54 -21)" style="fill:#3f3d56"/></svg>